<svg viewBox="0 0 1200 360" width="1200" height="360" xmlns="http://www.w3.org/2000/svg">
  <defs>
    <linearGradient id="bgGrad" x1="0%" y1="0%" x2="100%" y2="100%">
      <stop offset="0%" stop-color="#0d1117"/>
      <stop offset="50%" stop-color="#161b22"/>
      <stop offset="100%" stop-color="#0d1117"/>
    </linearGradient>
    <radialGradient id="glow" cx="50%" cy="35%" r="60%">
      <stop offset="0%" stop-color="#3fb950" stop-opacity="0.18"/>
      <stop offset="100%" stop-color="#3fb950" stop-opacity="0"/>
    </radialGradient>
  </defs>

  <rect x="0" y="0" width="1200" height="360" fill="url(#bgGrad)"/>
  <rect x="0" y="0" width="1200" height="360" fill="url(#glow)"/>

  <!-- decorative magnifier-inspired shapes, low opacity, kept away from text -->
  <circle cx="130" cy="80" r="46" fill="none" stroke="#58a6ff" stroke-width="3" opacity="0.18"/>
  <line x1="163" y1="113" x2="200" y2="150" stroke="#58a6ff" stroke-width="4" opacity="0.18"/>

  <circle cx="1075" cy="290" r="60" fill="none" stroke="#3fb950" stroke-width="3" opacity="0.15"/>
  <line x1="1032" y1="332" x2="990" y2="360" stroke="#3fb950" stroke-width="4" opacity="0.12"/>

  <circle cx="1000" cy="60" r="4" fill="#ffffff" opacity="0.25"/>
  <circle cx="1040" cy="90" r="3" fill="#ffffff" opacity="0.2"/>
  <circle cx="150" cy="300" r="3" fill="#ffffff" opacity="0.2"/>
  <circle cx="90" cy="260" r="4" fill="#ffffff" opacity="0.25"/>

  <path d="M 60 200 L 140 200" stroke="#c9d1d9" stroke-width="2" opacity="0.12"/>
  <path d="M 1060 160 L 1140 160" stroke="#c9d1d9" stroke-width="2" opacity="0.12"/>

  <polygon points="600,50 610,70 590,70" fill="#3fb950" opacity="0.15"/>

  <text x="600" y="165" text-anchor="middle" font-family="Segoe UI, Arial, sans-serif" font-size="64.0" fill="#ffffff" font-weight="600">
    <tspan x="600" dy="0">Find Mark Script</tspan>
  </text>

  <text x="600" y="220" text-anchor="middle" font-family="Segoe UI, Arial, sans-serif" font-size="22.0" fill="#c9d1d9">
    Find and Mark Script — a lightweight Windows tool.
  </text>
</svg>